<svg class="main-svg" xmlns="http://www.w3.org/2000/svg" xmlns:xlink="http://www.w3.org/1999/xlink" width="900" height="450" style="" viewBox="0 0 900 450"><rect x="0" y="0" width="900" height="450" style="fill: rgb(255, 255, 255); fill-opacity: 1;"/><defs id="defs-5d6504"><g class="clips"><clipPath id="clip5d6504xyplot" class="plotclip"><rect width="695" height="308"/></clipPath><clipPath class="axesclip" id="clip5d6504x"><rect x="61" y="0" width="695" height="450"/></clipPath><clipPath class="axesclip" id="clip5d6504y"><rect x="0" y="50" width="900" height="308"/></clipPath><clipPath class="axesclip" id="clip5d6504xy"><rect x="61" y="50" width="695" height="308"/></clipPath></g><g class="gradients"/><g class="patterns"/></defs><g class="bglayer"/><g class="layer-below"><g class="imagelayer"/><g class="shapelayer"/></g><g class="cartesianlayer"><g class="subplot xy"><g class="layer-subplot"><g class="shapelayer"/><g class="imagelayer"/></g><g class="minor-gridlayer"><g class="x"/><g class="y"/></g><g class="gridlayer"><g class="x"/><g class="y"/></g><g class="zerolinelayer"><path class="yzl zl crisp" transform="translate(0,331.22)" d="M61,0h695" style="stroke: rgb(255, 255, 255); stroke-opacity: 1; stroke-width: 1px;"/></g><g class="layer-between"><g class="shapelayer"/><g class="imagelayer"/></g><path class="xlines-below"/><path class="ylines-below"/><g class="overlines-below"/><g class="xaxislayer-below"/><g class="yaxislayer-below"/><g class="overaxes-below"/><g class="overplot"><g class="xy" transform="translate(61,50)" clip-path="url(#clip5d6504xyplot)"><g class="scatterlayer mlayer"><g class="trace scatter tracef4935d" style="stroke-miterlimit: 2; opacity: 1;"><g class="fills"/><g class="errorbars"/><g class="lines"><path class="js-line" d="M37.75,111.8L58.4,112.96L79.05,182.21L99.7,132.48L120.35,109.45L141,102.24L161.65,104.07L182.3,99.51L202.95,88.43L223.6,99.54L244.25,108.12L264.9,93.14L285.55,84.39L306.2,73.43L326.85,75.97L347.5,78.56L368.15,67.51L388.8,68.39L409.45,67.14L430.1,61.91L450.75,51.48L471.4,52.37L492.05,45.05L512.7,43.3L533.35,30.24L554,29.44L574.65,23.13L595.3,63.42L615.95,27.71L636.6,28.81L657.25,39.18" style="vector-effect: none; fill: none; stroke: rgb(31, 119, 180); stroke-opacity: 1; stroke-width: 2px; opacity: 1;"/></g><g class="points"><path class="point" transform="translate(37.75,111.8)" d="M2,0A2,2 0 1,1 0,-2A2,2 0 0,1 2,0Z" style="opacity: 1; stroke-width: 0px; fill: rgb(31, 119, 180); fill-opacity: 1;"/><path class="point" transform="translate(58.4,112.96)" d="M2,0A2,2 0 1,1 0,-2A2,2 0 0,1 2,0Z" style="opacity: 1; stroke-width: 0px; fill: rgb(31, 119, 180); fill-opacity: 1;"/><path class="point" transform="translate(79.05,182.21)" d="M2,0A2,2 0 1,1 0,-2A2,2 0 0,1 2,0Z" style="opacity: 1; stroke-width: 0px; fill: rgb(31, 119, 180); fill-opacity: 1;"/><path class="point" transform="translate(99.7,132.48)" d="M2,0A2,2 0 1,1 0,-2A2,2 0 0,1 2,0Z" style="opacity: 1; stroke-width: 0px; fill: rgb(31, 119, 180); fill-opacity: 1;"/><path class="point" transform="translate(120.35,109.45)" d="M2,0A2,2 0 1,1 0,-2A2,2 0 0,1 2,0Z" style="opacity: 1; stroke-width: 0px; fill: rgb(31, 119, 180); fill-opacity: 1;"/><path class="point" transform="translate(141,102.24)" d="M2,0A2,2 0 1,1 0,-2A2,2 0 0,1 2,0Z" style="opacity: 1; stroke-width: 0px; fill: rgb(31, 119, 180); fill-opacity: 1;"/><path class="point" transform="translate(161.65,104.07)" d="M2,0A2,2 0 1,1 0,-2A2,2 0 0,1 2,0Z" style="opacity: 1; stroke-width: 0px; fill: rgb(31, 119, 180); fill-opacity: 1;"/><path class="point" transform="translate(182.3,99.51)" d="M2,0A2,2 0 1,1 0,-2A2,2 0 0,1 2,0Z" style="opacity: 1; stroke-width: 0px; fill: rgb(31, 119, 180); fill-opacity: 1;"/><path class="point" transform="translate(202.95,88.43)" d="M2,0A2,2 0 1,1 0,-2A2,2 0 0,1 2,0Z" style="opacity: 1; stroke-width: 0px; fill: rgb(31, 119, 180); fill-opacity: 1;"/><path class="point" transform="translate(223.6,99.54)" d="M2,0A2,2 0 1,1 0,-2A2,2 0 0,1 2,0Z" style="opacity: 1; stroke-width: 0px; fill: rgb(31, 119, 180); fill-opacity: 1;"/><path class="point" transform="translate(244.25,108.12)" d="M2,0A2,2 0 1,1 0,-2A2,2 0 0,1 2,0Z" style="opacity: 1; stroke-width: 0px; fill: rgb(31, 119, 180); fill-opacity: 1;"/><path class="point" transform="translate(264.9,93.14)" d="M2,0A2,2 0 1,1 0,-2A2,2 0 0,1 2,0Z" style="opacity: 1; stroke-width: 0px; fill: rgb(31, 119, 180); fill-opacity: 1;"/><path class="point" transform="translate(285.55,84.39)" d="M2,0A2,2 0 1,1 0,-2A2,2 0 0,1 2,0Z" style="opacity: 1; stroke-width: 0px; fill: rgb(31, 119, 180); fill-opacity: 1;"/><path class="point" transform="translate(306.2,73.43)" d="M2,0A2,2 0 1,1 0,-2A2,2 0 0,1 2,0Z" style="opacity: 1; stroke-width: 0px; fill: rgb(31, 119, 180); fill-opacity: 1;"/><path class="point" transform="translate(326.85,75.97)" d="M2,0A2,2 0 1,1 0,-2A2,2 0 0,1 2,0Z" style="opacity: 1; stroke-width: 0px; fill: rgb(31, 119, 180); fill-opacity: 1;"/><path class="point" transform="translate(347.5,78.56)" d="M2,0A2,2 0 1,1 0,-2A2,2 0 0,1 2,0Z" style="opacity: 1; stroke-width: 0px; fill: rgb(31, 119, 180); fill-opacity: 1;"/><path class="point" transform="translate(368.15,67.51)" d="M2,0A2,2 0 1,1 0,-2A2,2 0 0,1 2,0Z" style="opacity: 1; stroke-width: 0px; fill: rgb(31, 119, 180); fill-opacity: 1;"/><path class="point" transform="translate(388.8,68.39)" d="M2,0A2,2 0 1,1 0,-2A2,2 0 0,1 2,0Z" style="opacity: 1; stroke-width: 0px; fill: rgb(31, 119, 180); fill-opacity: 1;"/><path class="point" transform="translate(409.45,67.14)" d="M2,0A2,2 0 1,1 0,-2A2,2 0 0,1 2,0Z" style="opacity: 1; stroke-width: 0px; fill: rgb(31, 119, 180); fill-opacity: 1;"/><path class="point" transform="translate(430.1,61.91)" d="M2,0A2,2 0 1,1 0,-2A2,2 0 0,1 2,0Z" style="opacity: 1; stroke-width: 0px; fill: rgb(31, 119, 180); fill-opacity: 1;"/><path class="point" transform="translate(450.75,51.48)" d="M2,0A2,2 0 1,1 0,-2A2,2 0 0,1 2,0Z" style="opacity: 1; stroke-width: 0px; fill: rgb(31, 119, 180); fill-opacity: 1;"/><path class="point" transform="translate(471.4,52.37)" d="M2,0A2,2 0 1,1 0,-2A2,2 0 0,1 2,0Z" style="opacity: 1; stroke-width: 0px; fill: rgb(31, 119, 180); fill-opacity: 1;"/><path class="point" transform="translate(492.05,45.05)" d="M2,0A2,2 0 1,1 0,-2A2,2 0 0,1 2,0Z" style="opacity: 1; stroke-width: 0px; fill: rgb(31, 119, 180); fill-opacity: 1;"/><path class="point" transform="translate(512.7,43.3)" d="M2,0A2,2 0 1,1 0,-2A2,2 0 0,1 2,0Z" style="opacity: 1; stroke-width: 0px; fill: rgb(31, 119, 180); fill-opacity: 1;"/><path class="point" transform="translate(533.35,30.24)" d="M2,0A2,2 0 1,1 0,-2A2,2 0 0,1 2,0Z" style="opacity: 1; stroke-width: 0px; fill: rgb(31, 119, 180); fill-opacity: 1;"/><path class="point" transform="translate(554,29.44)" d="M2,0A2,2 0 1,1 0,-2A2,2 0 0,1 2,0Z" style="opacity: 1; stroke-width: 0px; fill: rgb(31, 119, 180); fill-opacity: 1;"/><path class="point" transform="translate(574.65,23.13)" d="M2,0A2,2 0 1,1 0,-2A2,2 0 0,1 2,0Z" style="opacity: 1; stroke-width: 0px; fill: rgb(31, 119, 180); fill-opacity: 1;"/><path class="point" transform="translate(595.3,63.42)" d="M2,0A2,2 0 1,1 0,-2A2,2 0 0,1 2,0Z" style="opacity: 1; stroke-width: 0px; fill: rgb(31, 119, 180); fill-opacity: 1;"/><path class="point" transform="translate(615.95,27.71)" d="M2,0A2,2 0 1,1 0,-2A2,2 0 0,1 2,0Z" style="opacity: 1; stroke-width: 0px; fill: rgb(31, 119, 180); fill-opacity: 1;"/><path class="point" transform="translate(636.6,28.81)" d="M2,0A2,2 0 1,1 0,-2A2,2 0 0,1 2,0Z" style="opacity: 1; stroke-width: 0px; fill: rgb(31, 119, 180); fill-opacity: 1;"/><path class="point" transform="translate(657.25,39.18)" d="M2,0A2,2 0 1,1 0,-2A2,2 0 0,1 2,0Z" style="opacity: 1; stroke-width: 0px; fill: rgb(31, 119, 180); fill-opacity: 1;"/></g><g class="text"/></g><g class="trace scatter tracec06d18" style="stroke-miterlimit: 2; opacity: 1;"><g class="fills"/><g class="errorbars"/><g class="lines"><path class="js-line" d="M37.75,132.37L58.4,102.12L79.05,184.81L99.7,136.5L120.35,116.02L141,107.27L161.65,126.43L182.3,107.06L202.95,96.81L223.6,100.62L244.25,127.55L264.9,88.55L285.55,90.27L306.2,78.63L326.85,97.58L347.5,74.98L368.15,78.71L409.45,63.8L430.1,49.69L450.75,54.65L471.4,48.61L492.05,36.08L512.7,33.86L533.35,29.34L554,26.13L574.65,26.29L595.3,36.03L615.95,24.05L636.6,32.3L657.25,40.45" style="vector-effect: none; fill: none; stroke: rgb(255, 127, 14); stroke-opacity: 1; stroke-width: 2px; opacity: 1;"/></g><g class="points"><path class="point" transform="translate(37.75,132.37)" d="M2,0A2,2 0 1,1 0,-2A2,2 0 0,1 2,0Z" style="opacity: 1; stroke-width: 0px; fill: rgb(255, 127, 14); fill-opacity: 1;"/><path class="point" transform="translate(58.4,102.12)" d="M2,0A2,2 0 1,1 0,-2A2,2 0 0,1 2,0Z" style="opacity: 1; stroke-width: 0px; fill: rgb(255, 127, 14); fill-opacity: 1;"/><path class="point" transform="translate(79.05,184.81)" d="M2,0A2,2 0 1,1 0,-2A2,2 0 0,1 2,0Z" style="opacity: 1; stroke-width: 0px; fill: rgb(255, 127, 14); fill-opacity: 1;"/><path class="point" transform="translate(99.7,136.5)" d="M2,0A2,2 0 1,1 0,-2A2,2 0 0,1 2,0Z" style="opacity: 1; stroke-width: 0px; fill: rgb(255, 127, 14); fill-opacity: 1;"/><path class="point" transform="translate(120.35,116.02)" d="M2,0A2,2 0 1,1 0,-2A2,2 0 0,1 2,0Z" style="opacity: 1; stroke-width: 0px; fill: rgb(255, 127, 14); fill-opacity: 1;"/><path class="point" transform="translate(141,107.27)" d="M2,0A2,2 0 1,1 0,-2A2,2 0 0,1 2,0Z" style="opacity: 1; stroke-width: 0px; fill: rgb(255, 127, 14); fill-opacity: 1;"/><path class="point" transform="translate(161.65,126.43)" d="M2,0A2,2 0 1,1 0,-2A2,2 0 0,1 2,0Z" style="opacity: 1; stroke-width: 0px; fill: rgb(255, 127, 14); fill-opacity: 1;"/><path class="point" transform="translate(182.3,107.06)" d="M2,0A2,2 0 1,1 0,-2A2,2 0 0,1 2,0Z" style="opacity: 1; stroke-width: 0px; fill: rgb(255, 127, 14); fill-opacity: 1;"/><path class="point" transform="translate(202.95,96.81)" d="M2,0A2,2 0 1,1 0,-2A2,2 0 0,1 2,0Z" style="opacity: 1; stroke-width: 0px; fill: rgb(255, 127, 14); fill-opacity: 1;"/><path class="point" transform="translate(223.6,100.62)" d="M2,0A2,2 0 1,1 0,-2A2,2 0 0,1 2,0Z" style="opacity: 1; stroke-width: 0px; fill: rgb(255, 127, 14); fill-opacity: 1;"/><path class="point" transform="translate(244.25,127.55)" d="M2,0A2,2 0 1,1 0,-2A2,2 0 0,1 2,0Z" style="opacity: 1; stroke-width: 0px; fill: rgb(255, 127, 14); fill-opacity: 1;"/><path class="point" transform="translate(264.9,88.55)" d="M2,0A2,2 0 1,1 0,-2A2,2 0 0,1 2,0Z" style="opacity: 1; stroke-width: 0px; fill: rgb(255, 127, 14); fill-opacity: 1;"/><path class="point" transform="translate(285.55,90.27)" d="M2,0A2,2 0 1,1 0,-2A2,2 0 0,1 2,0Z" style="opacity: 1; stroke-width: 0px; fill: rgb(255, 127, 14); fill-opacity: 1;"/><path class="point" transform="translate(306.2,78.63)" d="M2,0A2,2 0 1,1 0,-2A2,2 0 0,1 2,0Z" style="opacity: 1; stroke-width: 0px; fill: rgb(255, 127, 14); fill-opacity: 1;"/><path class="point" transform="translate(326.85,97.58)" d="M2,0A2,2 0 1,1 0,-2A2,2 0 0,1 2,0Z" style="opacity: 1; stroke-width: 0px; fill: rgb(255, 127, 14); fill-opacity: 1;"/><path class="point" transform="translate(347.5,74.98)" d="M2,0A2,2 0 1,1 0,-2A2,2 0 0,1 2,0Z" style="opacity: 1; stroke-width: 0px; fill: rgb(255, 127, 14); fill-opacity: 1;"/><path class="point" transform="translate(368.15,78.71)" d="M2,0A2,2 0 1,1 0,-2A2,2 0 0,1 2,0Z" style="opacity: 1; stroke-width: 0px; fill: rgb(255, 127, 14); fill-opacity: 1;"/><path class="point" transform="translate(388.8,71.18)" d="M2,0A2,2 0 1,1 0,-2A2,2 0 0,1 2,0Z" style="opacity: 1; stroke-width: 0px; fill: rgb(255, 127, 14); fill-opacity: 1;"/><path class="point" transform="translate(409.45,63.8)" d="M2,0A2,2 0 1,1 0,-2A2,2 0 0,1 2,0Z" style="opacity: 1; stroke-width: 0px; fill: rgb(255, 127, 14); fill-opacity: 1;"/><path class="point" transform="translate(430.1,49.69)" d="M2,0A2,2 0 1,1 0,-2A2,2 0 0,1 2,0Z" style="opacity: 1; stroke-width: 0px; fill: rgb(255, 127, 14); fill-opacity: 1;"/><path class="point" transform="translate(450.75,54.65)" d="M2,0A2,2 0 1,1 0,-2A2,2 0 0,1 2,0Z" style="opacity: 1; stroke-width: 0px; fill: rgb(255, 127, 14); fill-opacity: 1;"/><path class="point" transform="translate(471.4,48.61)" d="M2,0A2,2 0 1,1 0,-2A2,2 0 0,1 2,0Z" style="opacity: 1; stroke-width: 0px; fill: rgb(255, 127, 14); fill-opacity: 1;"/><path class="point" transform="translate(492.05,36.08)" d="M2,0A2,2 0 1,1 0,-2A2,2 0 0,1 2,0Z" style="opacity: 1; stroke-width: 0px; fill: rgb(255, 127, 14); fill-opacity: 1;"/><path class="point" transform="translate(512.7,33.86)" d="M2,0A2,2 0 1,1 0,-2A2,2 0 0,1 2,0Z" style="opacity: 1; stroke-width: 0px; fill: rgb(255, 127, 14); fill-opacity: 1;"/><path class="point" transform="translate(533.35,29.34)" d="M2,0A2,2 0 1,1 0,-2A2,2 0 0,1 2,0Z" style="opacity: 1; stroke-width: 0px; fill: rgb(255, 127, 14); fill-opacity: 1;"/><path class="point" transform="translate(554,26.13)" d="M2,0A2,2 0 1,1 0,-2A2,2 0 0,1 2,0Z" style="opacity: 1; stroke-width: 0px; fill: rgb(255, 127, 14); fill-opacity: 1;"/><path class="point" transform="translate(574.65,26.29)" d="M2,0A2,2 0 1,1 0,-2A2,2 0 0,1 2,0Z" style="opacity: 1; stroke-width: 0px; fill: rgb(255, 127, 14); fill-opacity: 1;"/><path class="point" transform="translate(595.3,36.03)" d="M2,0A2,2 0 1,1 0,-2A2,2 0 0,1 2,0Z" style="opacity: 1; stroke-width: 0px; fill: rgb(255, 127, 14); fill-opacity: 1;"/><path class="point" transform="translate(615.95,24.05)" d="M2,0A2,2 0 1,1 0,-2A2,2 0 0,1 2,0Z" style="opacity: 1; stroke-width: 0px; fill: rgb(255, 127, 14); fill-opacity: 1;"/><path class="point" transform="translate(636.6,32.3)" d="M2,0A2,2 0 1,1 0,-2A2,2 0 0,1 2,0Z" style="opacity: 1; stroke-width: 0px; fill: rgb(255, 127, 14); fill-opacity: 1;"/><path class="point" transform="translate(657.25,40.45)" d="M2,0A2,2 0 1,1 0,-2A2,2 0 0,1 2,0Z" style="opacity: 1; stroke-width: 0px; fill: rgb(255, 127, 14); fill-opacity: 1;"/></g><g class="text"/></g><g class="trace scatter trace851c9b" style="stroke-miterlimit: 2; opacity: 1;"><g class="fills"/><g class="errorbars"/><g class="lines"><path class="js-line" d="M37.75,187.69L58.4,113.74L79.05,165.22L99.7,150.23L120.35,111.2L141,129.41L161.65,128.02L182.3,132.76L202.95,114.31L223.6,111.6L244.25,127.4L264.9,98.83L285.55,92.81L306.2,83.45L326.85,82.89L347.5,97.52L368.15,95.3L388.8,92.27L409.45,77.92L430.1,63.74L450.75,54.1L471.4,63.93L492.05,47.06L512.7,34.48L533.35,35.34L554,28.31L574.65,65.69L595.3,30.97L615.95,37.03L636.6,30.61L657.25,54.54" style="vector-effect: none; fill: none; stroke: rgb(44, 160, 44); stroke-opacity: 1; stroke-width: 2px; opacity: 1;"/></g><g class="points"><path class="point" transform="translate(37.75,187.69)" d="M2,0A2,2 0 1,1 0,-2A2,2 0 0,1 2,0Z" style="opacity: 1; stroke-width: 0px; fill: rgb(44, 160, 44); fill-opacity: 1;"/><path class="point" transform="translate(58.4,113.74)" d="M2,0A2,2 0 1,1 0,-2A2,2 0 0,1 2,0Z" style="opacity: 1; stroke-width: 0px; fill: rgb(44, 160, 44); fill-opacity: 1;"/><path class="point" transform="translate(79.05,165.22)" d="M2,0A2,2 0 1,1 0,-2A2,2 0 0,1 2,0Z" style="opacity: 1; stroke-width: 0px; fill: rgb(44, 160, 44); fill-opacity: 1;"/><path class="point" transform="translate(99.7,150.23)" d="M2,0A2,2 0 1,1 0,-2A2,2 0 0,1 2,0Z" style="opacity: 1; stroke-width: 0px; fill: rgb(44, 160, 44); fill-opacity: 1;"/><path class="point" transform="translate(120.35,111.2)" d="M2,0A2,2 0 1,1 0,-2A2,2 0 0,1 2,0Z" style="opacity: 1; stroke-width: 0px; fill: rgb(44, 160, 44); fill-opacity: 1;"/><path class="point" transform="translate(141,129.41)" d="M2,0A2,2 0 1,1 0,-2A2,2 0 0,1 2,0Z" style="opacity: 1; stroke-width: 0px; fill: rgb(44, 160, 44); fill-opacity: 1;"/><path class="point" transform="translate(161.65,128.02)" d="M2,0A2,2 0 1,1 0,-2A2,2 0 0,1 2,0Z" style="opacity: 1; stroke-width: 0px; fill: rgb(44, 160, 44); fill-opacity: 1;"/><path class="point" transform="translate(182.3,132.76)" d="M2,0A2,2 0 1,1 0,-2A2,2 0 0,1 2,0Z" style="opacity: 1; stroke-width: 0px; fill: rgb(44, 160, 44); fill-opacity: 1;"/><path class="point" transform="translate(202.95,114.31)" d="M2,0A2,2 0 1,1 0,-2A2,2 0 0,1 2,0Z" style="opacity: 1; stroke-width: 0px; fill: rgb(44, 160, 44); fill-opacity: 1;"/><path class="point" transform="translate(223.6,111.6)" d="M2,0A2,2 0 1,1 0,-2A2,2 0 0,1 2,0Z" style="opacity: 1; stroke-width: 0px; fill: rgb(44, 160, 44); fill-opacity: 1;"/><path class="point" transform="translate(244.25,127.4)" d="M2,0A2,2 0 1,1 0,-2A2,2 0 0,1 2,0Z" style="opacity: 1; stroke-width: 0px; fill: rgb(44, 160, 44); fill-opacity: 1;"/><path class="point" transform="translate(264.9,98.83)" d="M2,0A2,2 0 1,1 0,-2A2,2 0 0,1 2,0Z" style="opacity: 1; stroke-width: 0px; fill: rgb(44, 160, 44); fill-opacity: 1;"/><path class="point" transform="translate(285.55,92.81)" d="M2,0A2,2 0 1,1 0,-2A2,2 0 0,1 2,0Z" style="opacity: 1; stroke-width: 0px; fill: rgb(44, 160, 44); fill-opacity: 1;"/><path class="point" transform="translate(306.2,83.45)" d="M2,0A2,2 0 1,1 0,-2A2,2 0 0,1 2,0Z" style="opacity: 1; stroke-width: 0px; fill: rgb(44, 160, 44); fill-opacity: 1;"/><path class="point" transform="translate(326.85,82.89)" d="M2,0A2,2 0 1,1 0,-2A2,2 0 0,1 2,0Z" style="opacity: 1; stroke-width: 0px; fill: rgb(44, 160, 44); fill-opacity: 1;"/><path class="point" transform="translate(347.5,97.52)" d="M2,0A2,2 0 1,1 0,-2A2,2 0 0,1 2,0Z" style="opacity: 1; stroke-width: 0px; fill: rgb(44, 160, 44); fill-opacity: 1;"/><path class="point" transform="translate(368.15,95.3)" d="M2,0A2,2 0 1,1 0,-2A2,2 0 0,1 2,0Z" style="opacity: 1; stroke-width: 0px; fill: rgb(44, 160, 44); fill-opacity: 1;"/><path class="point" transform="translate(388.8,92.27)" d="M2,0A2,2 0 1,1 0,-2A2,2 0 0,1 2,0Z" style="opacity: 1; stroke-width: 0px; fill: rgb(44, 160, 44); fill-opacity: 1;"/><path class="point" transform="translate(409.45,77.92)" d="M2,0A2,2 0 1,1 0,-2A2,2 0 0,1 2,0Z" style="opacity: 1; stroke-width: 0px; fill: rgb(44, 160, 44); fill-opacity: 1;"/><path class="point" transform="translate(430.1,63.74)" d="M2,0A2,2 0 1,1 0,-2A2,2 0 0,1 2,0Z" style="opacity: 1; stroke-width: 0px; fill: rgb(44, 160, 44); fill-opacity: 1;"/><path class="point" transform="translate(450.75,54.1)" d="M2,0A2,2 0 1,1 0,-2A2,2 0 0,1 2,0Z" style="opacity: 1; stroke-width: 0px; fill: rgb(44, 160, 44); fill-opacity: 1;"/><path class="point" transform="translate(471.4,63.93)" d="M2,0A2,2 0 1,1 0,-2A2,2 0 0,1 2,0Z" style="opacity: 1; stroke-width: 0px; fill: rgb(44, 160, 44); fill-opacity: 1;"/><path class="point" transform="translate(492.05,47.06)" d="M2,0A2,2 0 1,1 0,-2A2,2 0 0,1 2,0Z" style="opacity: 1; stroke-width: 0px; fill: rgb(44, 160, 44); fill-opacity: 1;"/><path class="point" transform="translate(512.7,34.48)" d="M2,0A2,2 0 1,1 0,-2A2,2 0 0,1 2,0Z" style="opacity: 1; stroke-width: 0px; fill: rgb(44, 160, 44); fill-opacity: 1;"/><path class="point" transform="translate(533.35,35.34)" d="M2,0A2,2 0 1,1 0,-2A2,2 0 0,1 2,0Z" style="opacity: 1; stroke-width: 0px; fill: rgb(44, 160, 44); fill-opacity: 1;"/><path class="point" transform="translate(554,28.31)" d="M2,0A2,2 0 1,1 0,-2A2,2 0 0,1 2,0Z" style="opacity: 1; stroke-width: 0px; fill: rgb(44, 160, 44); fill-opacity: 1;"/><path class="point" transform="translate(574.65,65.69)" d="M2,0A2,2 0 1,1 0,-2A2,2 0 0,1 2,0Z" style="opacity: 1; stroke-width: 0px; fill: rgb(44, 160, 44); fill-opacity: 1;"/><path class="point" transform="translate(595.3,30.97)" d="M2,0A2,2 0 1,1 0,-2A2,2 0 0,1 2,0Z" style="opacity: 1; stroke-width: 0px; fill: rgb(44, 160, 44); fill-opacity: 1;"/><path class="point" transform="translate(615.95,37.03)" d="M2,0A2,2 0 1,1 0,-2A2,2 0 0,1 2,0Z" style="opacity: 1; stroke-width: 0px; fill: rgb(44, 160, 44); fill-opacity: 1;"/><path class="point" transform="translate(636.6,30.61)" d="M2,0A2,2 0 1,1 0,-2A2,2 0 0,1 2,0Z" style="opacity: 1; stroke-width: 0px; fill: rgb(44, 160, 44); fill-opacity: 1;"/><path class="point" transform="translate(657.25,54.54)" d="M2,0A2,2 0 1,1 0,-2A2,2 0 0,1 2,0Z" style="opacity: 1; stroke-width: 0px; fill: rgb(44, 160, 44); fill-opacity: 1;"/></g><g class="text"/></g></g></g></g><g class="zerolinelayer-above"/><path class="xlines-above crisp" d="M60,358.5H756" style="fill: none; stroke-width: 1px; stroke: rgb(0, 0, 0); stroke-opacity: 1;"/><path class="ylines-above crisp" d="M60.5,50V358" style="fill: none; stroke-width: 1px; stroke: rgb(0, 0, 0); stroke-opacity: 1;"/><g class="overlines-above"/><g class="xaxislayer-above"><g class="xtick"><text text-anchor="start" x="0" y="374.6" transform="translate(98.75,0) rotate(90,0,368.1)" style="font-family: Inter, system-ui, sans-serif; font-size: 13px; fill: rgb(36, 36, 36); fill-opacity: 1; white-space: pre;">0→1</text></g><g class="xtick"><text text-anchor="start" x="0" y="374.6" transform="translate(119.4,0) rotate(90,0,368.1)" style="font-family: Inter, system-ui, sans-serif; font-size: 13px; fill: rgb(36, 36, 36); fill-opacity: 1; white-space: pre;">1→2</text></g><g class="xtick"><text text-anchor="start" x="0" y="374.6" transform="translate(140.05,0) rotate(90,0,368.1)" style="font-family: Inter, system-ui, sans-serif; font-size: 13px; fill: rgb(36, 36, 36); fill-opacity: 1; white-space: pre;">2→3</text></g><g class="xtick"><text text-anchor="start" x="0" y="374.6" transform="translate(160.7,0) rotate(90,0,368.1)" style="font-family: Inter, system-ui, sans-serif; font-size: 13px; fill: rgb(36, 36, 36); fill-opacity: 1; white-space: pre;">3→4</text></g><g class="xtick"><text text-anchor="start" x="0" y="374.6" transform="translate(181.35,0) rotate(90,0,368.1)" style="font-family: Inter, system-ui, sans-serif; font-size: 13px; fill: rgb(36, 36, 36); fill-opacity: 1; white-space: pre;">4→5</text></g><g class="xtick"><text text-anchor="start" x="0" y="374.6" transform="translate(202,0) rotate(90,0,368.1)" style="font-family: Inter, system-ui, sans-serif; font-size: 13px; fill: rgb(36, 36, 36); fill-opacity: 1; white-space: pre;">5→6</text></g><g class="xtick"><text text-anchor="start" x="0" y="374.6" transform="translate(222.65,0) rotate(90,0,368.1)" style="font-family: Inter, system-ui, sans-serif; font-size: 13px; fill: rgb(36, 36, 36); fill-opacity: 1; white-space: pre;">6→7</text></g><g class="xtick"><text text-anchor="start" x="0" y="374.6" transform="translate(243.3,0) rotate(90,0,368.1)" style="font-family: Inter, system-ui, sans-serif; font-size: 13px; fill: rgb(36, 36, 36); fill-opacity: 1; white-space: pre;">7→8</text></g><g class="xtick"><text text-anchor="start" x="0" y="374.6" transform="translate(263.95,0) rotate(90,0,368.1)" style="font-family: Inter, system-ui, sans-serif; font-size: 13px; fill: rgb(36, 36, 36); fill-opacity: 1; white-space: pre;">8→9</text></g><g class="xtick"><text text-anchor="start" x="0" y="374.6" transform="translate(284.6,0) rotate(90,0,368.1)" style="font-family: Inter, system-ui, sans-serif; font-size: 13px; fill: rgb(36, 36, 36); fill-opacity: 1; white-space: pre;">9→10</text></g><g class="xtick"><text text-anchor="start" x="0" y="374.6" transform="translate(305.25,0) rotate(90,0,368.1)" style="font-family: Inter, system-ui, sans-serif; font-size: 13px; fill: rgb(36, 36, 36); fill-opacity: 1; white-space: pre;">10→11</text></g><g class="xtick"><text text-anchor="start" x="0" y="374.6" transform="translate(325.9,0) rotate(90,0,368.1)" style="font-family: Inter, system-ui, sans-serif; font-size: 13px; fill: rgb(36, 36, 36); fill-opacity: 1; white-space: pre;">11→12</text></g><g class="xtick"><text text-anchor="start" x="0" y="374.6" transform="translate(346.55,0) rotate(90,0,368.1)" style="font-family: Inter, system-ui, sans-serif; font-size: 13px; fill: rgb(36, 36, 36); fill-opacity: 1; white-space: pre;">12→13</text></g><g class="xtick"><text text-anchor="start" x="0" y="374.6" transform="translate(367.2,0) rotate(90,0,368.1)" style="font-family: Inter, system-ui, sans-serif; font-size: 13px; fill: rgb(36, 36, 36); fill-opacity: 1; white-space: pre;">13→14</text></g><g class="xtick"><text text-anchor="start" x="0" y="374.6" transform="translate(387.85,0) rotate(90,0,368.1)" style="font-family: Inter, system-ui, sans-serif; font-size: 13px; fill: rgb(36, 36, 36); fill-opacity: 1; white-space: pre;">14→15</text></g><g class="xtick"><text text-anchor="start" x="0" y="374.6" transform="translate(408.5,0) rotate(90,0,368.1)" style="font-family: Inter, system-ui, sans-serif; font-size: 13px; fill: rgb(36, 36, 36); fill-opacity: 1; white-space: pre;">15→16</text></g><g class="xtick"><text text-anchor="start" x="0" y="374.6" transform="translate(429.15,0) rotate(90,0,368.1)" style="font-family: Inter, system-ui, sans-serif; font-size: 13px; fill: rgb(36, 36, 36); fill-opacity: 1; white-space: pre;">16→17</text></g><g class="xtick"><text text-anchor="start" x="0" y="374.6" transform="translate(449.8,0) rotate(90,0,368.1)" style="font-family: Inter, system-ui, sans-serif; font-size: 13px; fill: rgb(36, 36, 36); fill-opacity: 1; white-space: pre;">17→18</text></g><g class="xtick"><text text-anchor="start" x="0" y="374.6" transform="translate(470.45,0) rotate(90,0,368.1)" style="font-family: Inter, system-ui, sans-serif; font-size: 13px; fill: rgb(36, 36, 36); fill-opacity: 1; white-space: pre;">18→19</text></g><g class="xtick"><text text-anchor="start" x="0" y="374.6" transform="translate(491.1,0) rotate(90,0,368.1)" style="font-family: Inter, system-ui, sans-serif; font-size: 13px; fill: rgb(36, 36, 36); fill-opacity: 1; white-space: pre;">19→20</text></g><g class="xtick"><text text-anchor="start" x="0" y="374.6" transform="translate(511.75,0) rotate(90,0,368.1)" style="font-family: Inter, system-ui, sans-serif; font-size: 13px; fill: rgb(36, 36, 36); fill-opacity: 1; white-space: pre;">20→21</text></g><g class="xtick"><text text-anchor="start" x="0" y="374.6" transform="translate(532.4,0) rotate(90,0,368.1)" style="font-family: Inter, system-ui, sans-serif; font-size: 13px; fill: rgb(36, 36, 36); fill-opacity: 1; white-space: pre;">21→22</text></g><g class="xtick"><text text-anchor="start" x="0" y="374.6" transform="translate(553.05,0) rotate(90,0,368.1)" style="font-family: Inter, system-ui, sans-serif; font-size: 13px; fill: rgb(36, 36, 36); fill-opacity: 1; white-space: pre;">22→23</text></g><g class="xtick"><text text-anchor="start" x="0" y="374.6" transform="translate(573.7,0) rotate(90,0,368.1)" style="font-family: Inter, system-ui, sans-serif; font-size: 13px; fill: rgb(36, 36, 36); fill-opacity: 1; white-space: pre;">23→24</text></g><g class="xtick"><text text-anchor="start" x="0" y="374.6" transform="translate(594.35,0) rotate(90,0,368.1)" style="font-family: Inter, system-ui, sans-serif; font-size: 13px; fill: rgb(36, 36, 36); fill-opacity: 1; white-space: pre;">24→25</text></g><g class="xtick"><text text-anchor="start" x="0" y="374.6" transform="translate(615,0) rotate(90,0,368.1)" style="font-family: Inter, system-ui, sans-serif; font-size: 13px; fill: rgb(36, 36, 36); fill-opacity: 1; white-space: pre;">25→26</text></g><g class="xtick"><text text-anchor="start" x="0" y="374.6" transform="translate(635.65,0) rotate(90,0,368.1)" style="font-family: Inter, system-ui, sans-serif; font-size: 13px; fill: rgb(36, 36, 36); fill-opacity: 1; white-space: pre;">26→27</text></g><g class="xtick"><text text-anchor="start" x="0" y="374.6" transform="translate(656.3,0) rotate(90,0,368.1)" style="font-family: Inter, system-ui, sans-serif; font-size: 13px; fill: rgb(36, 36, 36); fill-opacity: 1; white-space: pre;">27→28</text></g><g class="xtick"><text text-anchor="start" x="0" y="374.6" transform="translate(676.95,0) rotate(90,0,368.1)" style="font-family: Inter, system-ui, sans-serif; font-size: 13px; fill: rgb(36, 36, 36); fill-opacity: 1; white-space: pre;">28→29</text></g><g class="xtick"><text text-anchor="start" x="0" y="374.6" transform="translate(697.6,0) rotate(90,0,368.1)" style="font-family: Inter, system-ui, sans-serif; font-size: 13px; fill: rgb(36, 36, 36); fill-opacity: 1; white-space: pre;">29→30</text></g><g class="xtick"><text text-anchor="start" x="0" y="374.6" transform="translate(718.25,0) rotate(90,0,368.1)" style="font-family: Inter, system-ui, sans-serif; font-size: 13px; fill: rgb(36, 36, 36); fill-opacity: 1; white-space: pre;">30→31</text></g></g><g class="yaxislayer-above"><g class="ytick"><text text-anchor="end" x="57.4" y="4.55" transform="translate(0,331.22)" style="font-family: Inter, system-ui, sans-serif; font-size: 13px; fill: rgb(36, 36, 36); fill-opacity: 1; white-space: pre;">0</text></g><g class="ytick"><text text-anchor="end" x="57.4" y="4.55" style="font-family: Inter, system-ui, sans-serif; font-size: 13px; fill: rgb(36, 36, 36); fill-opacity: 1; white-space: pre;" transform="translate(0,277.65)">0.2</text></g><g class="ytick"><text text-anchor="end" x="57.4" y="4.55" style="font-family: Inter, system-ui, sans-serif; font-size: 13px; fill: rgb(36, 36, 36); fill-opacity: 1; white-space: pre;" transform="translate(0,224.09)">0.4</text></g><g class="ytick"><text text-anchor="end" x="57.4" y="4.55" style="font-family: Inter, system-ui, sans-serif; font-size: 13px; fill: rgb(36, 36, 36); fill-opacity: 1; white-space: pre;" transform="translate(0,170.51999999999998)">0.6</text></g><g class="ytick"><text text-anchor="end" x="57.4" y="4.55" style="font-family: Inter, system-ui, sans-serif; font-size: 13px; fill: rgb(36, 36, 36); fill-opacity: 1; white-space: pre;" transform="translate(0,116.96)">0.8</text></g><g class="ytick"><text text-anchor="end" x="57.4" y="4.55" style="font-family: Inter, system-ui, sans-serif; font-size: 13px; fill: rgb(36, 36, 36); fill-opacity: 1; white-space: pre;" transform="translate(0,63.39)">1</text></g></g><g class="overaxes-above"/></g></g><g class="polarlayer"/><g class="smithlayer"/><g class="ternarylayer"/><g class="geolayer"/><g class="funnelarealayer"/><g class="pielayer"/><g class="iciclelayer"/><g class="treemaplayer"/><g class="sunburstlayer"/><g class="glimages"/><defs id="topdefs-5d6504"><g class="clips"/><clipPath id="legend5d6504"><rect width="118" height="70" x="0" y="0"/></clipPath></defs><g class="layer-above"><g class="imagelayer"/><g class="shapelayer"/></g><g class="infolayer"><g class="legend" pointer-events="all" transform="translate(769.9,50)"><rect class="bg" shape-rendering="crispEdges" style="stroke: rgb(68, 68, 68); stroke-opacity: 1; fill: rgb(255, 255, 255); fill-opacity: 1; stroke-width: 0px;" width="118" height="70" x="0" y="0"/><g class="scrollbox" transform="" clip-path="url(#legend5d6504)"><g class="groups"><g class="traces" transform="translate(0,14.950000000000001)" style="opacity: 1;"><text class="legendtext" text-anchor="start" x="40" y="5.07" style="font-family: Inter, system-ui, sans-serif; font-size: 13px; fill: rgb(36, 36, 36); fill-opacity: 1; white-space: pre;">concise</text><g class="layers" style="opacity: 1;"><g class="legendfill"/><g class="legendlines"><path class="js-line" d="M5,0h30" style="fill: none; stroke: rgb(31, 119, 180); stroke-opacity: 1; stroke-width: 2px;"/></g><g class="legendsymbols"><g class="legendpoints"><path class="scatterpts" transform="translate(20,0)" d="M2,0A2,2 0 1,1 0,-2A2,2 0 0,1 2,0Z" style="opacity: 1; stroke-width: 0px; fill: rgb(31, 119, 180); fill-opacity: 1;"/></g></g></g><rect class="legendtoggle" x="0" y="-9.950000000000001" width="112.171875" height="19.900000000000002" style="fill: rgb(0, 0, 0); fill-opacity: 0;"/></g><g class="traces" transform="translate(0,34.85)" style="opacity: 1;"><text class="legendtext" text-anchor="start" x="40" y="5.07" style="font-family: Inter, system-ui, sans-serif; font-size: 13px; fill: rgb(36, 36, 36); fill-opacity: 1; white-space: pre;">permissive</text><g class="layers" style="opacity: 1;"><g class="legendfill"/><g class="legendlines"><path class="js-line" d="M5,0h30" style="fill: none; stroke: rgb(255, 127, 14); stroke-opacity: 1; stroke-width: 2px;"/></g><g class="legendsymbols"><g class="legendpoints"><path class="scatterpts" transform="translate(20,0)" d="M2,0A2,2 0 1,1 0,-2A2,2 0 0,1 2,0Z" style="opacity: 1; stroke-width: 0px; fill: rgb(255, 127, 14); fill-opacity: 1;"/></g></g></g><rect class="legendtoggle" x="0" y="-9.950000000000001" width="112.171875" height="19.900000000000002" style="fill: rgb(0, 0, 0); fill-opacity: 0;"/></g><g class="traces" transform="translate(0,54.75000000000001)" style="opacity: 1;"><text class="legendtext" text-anchor="start" x="40" y="5.07" style="font-family: Inter, system-ui, sans-serif; font-size: 13px; fill: rgb(36, 36, 36); fill-opacity: 1; white-space: pre;">sutro_tower</text><g class="layers" style="opacity: 1;"><g class="legendfill"/><g class="legendlines"><path class="js-line" d="M5,0h30" style="fill: none; stroke: rgb(44, 160, 44); stroke-opacity: 1; stroke-width: 2px;"/></g><g class="legendsymbols"><g class="legendpoints"><path class="scatterpts" transform="translate(20,0)" d="M2,0A2,2 0 1,1 0,-2A2,2 0 0,1 2,0Z" style="opacity: 1; stroke-width: 0px; fill: rgb(44, 160, 44); fill-opacity: 1;"/></g></g></g><rect class="legendtoggle" x="0" y="-9.950000000000001" width="112.171875" height="19.900000000000002" style="fill: rgb(0, 0, 0); fill-opacity: 0;"/></g></g></g><rect class="scrollbar" rx="20" ry="3" width="0" height="0" style="fill: rgb(128, 139, 164); fill-opacity: 1;" x="0" y="0"/></g><g class="g-gtitle"><text class="gtitle" x="450" y="25" text-anchor="middle" dy="0em" style="opacity: 1; font-family: Inter, system-ui, sans-serif; font-size: 18px; fill: rgb(36, 36, 36); fill-opacity: 1; white-space: pre;">Adjacent-Layer Vector Similarity</text></g><g class="g-xtitle"><text class="xtitle" x="408.5" y="437.658984375" text-anchor="middle" style="opacity: 1; font-family: Inter, system-ui, sans-serif; font-size: 16px; fill: rgb(36, 36, 36); fill-opacity: 1; white-space: pre;">Layer transition (i → i+1)</text></g><g class="g-ytitle"><text class="ytitle" transform="rotate(-90,18.003515625,204)" x="18.003515625" y="204" text-anchor="middle" style="opacity: 1; font-family: Inter, system-ui, sans-serif; font-size: 16px; fill: rgb(36, 36, 36); fill-opacity: 1; white-space: pre;">Cosine similarity</text></g></g></svg>